<svg xmlns="http://www.w3.org/2000/svg" xmlns:xlink="http://www.w3.org/1999/xlink" width="500" zoomAndPan="magnify" viewBox="0 0 375 374.999991" height="500" preserveAspectRatio="xMidYMid meet" version="1.0"><defs><clipPath id="8bfd7c1a37"><path d="M 76 22.6875 L 299.675781 22.6875 L 299.675781 352 L 76 352 Z M 76 22.6875 " clip-rule="nonzero"/></clipPath></defs><g clip-path="url(#8bfd7c1a37)"><path fill="#ffffff" d="M 235.773438 90.519531 C 211.503906 76.902344 186.839844 62.894531 163.03125 48.820312 L 141.328125 36.0625 L 95.027344 62.828125 L 128.175781 81.96875 L 194.140625 120.246094 L 194.535156 120.246094 L 234.523438 143.199219 L 246.890625 136.425781 L 247.285156 136.03125 L 280.890625 116.890625 Z M 295.753906 190.027344 L 246.429688 218.503906 L 237.484375 224.03125 L 237.089844 224.03125 L 228.144531 229.160156 L 212.820312 238.105469 L 212.425781 238.5 L 206.441406 241.917969 C 206.441406 276.382812 206.441406 310.78125 206.441406 345.703125 C 206.441406 346.558594 206.046875 347.808594 205.585938 348.664062 C 203.875 351.621094 200.0625 352.476562 197.101562 350.769531 L 138.828125 317.160156 C 136.726562 316.304688 135.410156 314.199219 135.410156 311.636719 C 135.410156 299.730469 135.410156 287.828125 135.410156 275.921875 L 79.703125 243.5625 C 76.742188 241.855469 75.429688 238.039062 77.136719 235.078125 C 77.992188 234.222656 78.847656 233.371094 79.703125 232.515625 L 104.367188 218.503906 L 135.410156 200.617188 L 135.410156 136.425781 C 135.410156 135.175781 135.410156 134.320312 136.265625 133.003906 C 137.976562 130.046875 141.394531 129.191406 144.355469 130.902344 L 200.457031 163.195312 L 222.160156 150.433594 L 188.617188 131.296875 L 188.222656 130.902344 L 121.863281 92.621094 L 79.703125 68.355469 C 78.847656 67.960938 77.992188 67.105469 77.136719 65.789062 C 75.429688 63.222656 76.742188 59.410156 79.703125 57.699219 L 137.976562 23.761719 C 140.078125 22.511719 142.25 22.511719 144.355469 23.761719 L 169.414062 38.230469 L 187.695312 48.886719 L 296.148438 111.367188 L 296.542969 111.367188 L 296.542969 111.761719 L 297.335938 111.761719 L 297.335938 112.15625 L 297.730469 112.15625 L 297.730469 112.550781 L 298.125 112.550781 L 298.125 113.339844 L 298.519531 113.339844 L 298.519531 114.128906 L 298.914062 114.128906 L 298.914062 115.3125 L 299.308594 115.3125 L 299.308594 184.109375 C 299.570312 187.003906 297.859375 189.171875 295.753906 190.027344 Z M 240.445312 207.851562 L 286.8125 181.082031 L 286.8125 127.480469 L 253.203125 146.621094 L 253.203125 147.015625 L 194.140625 181.082031 L 187.367188 184.898438 L 186.972656 185.292969 L 183.554688 187.398438 L 145.210938 209.5625 C 144.816406 209.5625 144.355469 209.5625 143.960938 209.957031 L 110.8125 229.09375 L 95.09375 238.039062 L 141.460938 264.808594 L 197.167969 232.910156 L 197.5625 232.910156 L 206.046875 227.777344 L 206.441406 227.382812 L 222.160156 218.441406 L 231.105469 213.308594 L 231.5 212.914062 Z M 194.140625 249.089844 L 166.914062 264.414062 L 147.773438 275.921875 C 147.773438 286.578125 147.773438 297.164062 147.773438 307.820312 L 194.140625 334.589844 C 194.140625 306.109375 194.140625 277.632812 194.140625 249.089844 Z M 188.15625 170.429688 L 147.773438 147.078125 L 147.773438 193.449219 L 177.109375 176.414062 L 180.527344 174.308594 L 180.921875 174.308594 Z M 188.15625 170.429688 " fill-opacity="1" fill-rule="nonzero"/></g></svg>